<svg xmlns="http://www.w3.org/2000/svg" width="1041.102" height="835.81" viewBox="0 0 1041.102 835.81">
  <path id="Path_1484" data-name="Path 1484" d="M40.355,921.452C22.949,843.127,98.927,778.761,172.762,778.558c31.835-.087,63.615,6.168,95.354,3.7a175.984,175.984,0,0,0,115.816-57.06s20.358-38.363,72.444-127.653S608.913,448.725,709.364,471.048s137.395-3.8,137.395-3.8c34.76-20.377,63.727-55.737,64.406-96.024.655-38.8-24.186-73.433-30.677-111.7-10.672-62.906,32.953-126.665,91.286-152.52,33.171-14.7,69.644-18.89,105.911-15.618l1.256,834.764Z" transform="translate(-37.838 -90.342)" fill="#f4f6fc"/>
</svg>
