<svg xmlns="http://www.w3.org/2000/svg" width="9.931" height="21.376" viewBox="0 0 9.931 21.376">
  <g id="Group_233" data-name="Group 233" transform="translate(0 0)">
    <path id="Path_1544" data-name="Path 1544" d="M635.772,224.653v10.334a.269.269,0,0,0,.269.269h3.838a.269.269,0,0,0,.269-.269v-10.5h2.783a.269.269,0,0,0,.268-.246l.268-3.165a.27.27,0,0,0-.268-.292h-3.05v-2.245a.953.953,0,0,1,.953-.953h2.145a.269.269,0,0,0,.269-.269V214.15a.269.269,0,0,0-.269-.269h-3.623a3.85,3.85,0,0,0-3.85,3.85v3.05h-1.919a.269.269,0,0,0-.269.269v3.165a.269.269,0,0,0,.269.269h1.919Z" transform="translate(-633.584 -213.881)" fill="#fff" fill-rule="evenodd"/>
  </g>
</svg>
