<svg xmlns="http://www.w3.org/2000/svg" width="53.215" height="50" viewBox="0 0 53.215 50">
  <g id="Group_1020" data-name="Group 1020" transform="translate(-1313.343 -3003.112)">
    <path id="Path_3197" data-name="Path 3197" d="M1517.848,3260.876a1.283,1.283,0,0,0,1.283-1.283,3.692,3.692,0,1,1,7.383,0,1.283,1.283,0,0,0,2.566,0,6.269,6.269,0,0,0-4.977-6.126v-6.015a1.283,1.283,0,0,0-2.566,0v6.017a6.268,6.268,0,0,0-4.972,6.124A1.283,1.283,0,0,0,1517.848,3260.876Z" transform="translate(-182.87 -218.61)" fill="#49d6cb"/>
    <path id="Path_3198" data-name="Path 3198" d="M1365.224,3044.387h-2.669v-20.526c0-6.133-4.036-7.421-7.423-7.421h-8.776v-3.881c0-5.36-5.365-9.04-5.667-9.245a1.445,1.445,0,0,0-1.551.051c-.227.155-5.591,3.834-5.591,9.194v3.881h-7.692c-5.169,0-8.509,2.913-8.509,7.421v20.526h-2.668a1.333,1.333,0,0,0-1.333,1.333v2.481a5.194,5.194,0,0,0,5.074,4.911l43.878,0c2.929,0,4.262-2.545,4.262-4.908v-2.481A1.333,1.333,0,0,0,1365.224,3044.387Zm-1.333,3.814c0,.229-.045,2.241-1.6,2.241l-43.878,0a2.564,2.564,0,0,1-2.407-2.244v-1.147h2.668a1.333,1.333,0,0,0,1.333-1.334v-21.859c0-3.021,2.129-4.753,5.842-4.753h7.692v2.8a2.9,2.9,0,0,1-.611.875c-1.086,1.287-2.725,3.232-2.725,7.968a1.332,1.332,0,0,0,1.1,1.312,5.125,5.125,0,0,0,.922.077,6.953,6.953,0,0,0,6.159-3.752,1.334,1.334,0,1,0-2.342-1.278,4.226,4.226,0,0,1-3.114,2.313,7.635,7.635,0,0,1,2.043-4.921,3.945,3.945,0,0,0,1.24-2.594v-9.344c0-2.95,2.462-5.389,3.742-6.458,1.241,1.029,3.734,3.469,3.734,6.458v9.342a3.948,3.948,0,0,0,1.24,2.6,7.615,7.615,0,0,1,2.042,4.911,4.25,4.25,0,0,1-3.113-2.3,1.334,1.334,0,1,0-2.342,1.278,6.9,6.9,0,0,0,7.083,3.675,1.333,1.333,0,0,0,1.094-1.312c0-4.736-1.64-6.679-2.724-7.966a2.894,2.894,0,0,1-.612-.876v-2.794h8.776c3.423,0,4.756,1.332,4.756,4.753v21.859a1.334,1.334,0,0,0,1.334,1.334h2.669Z" transform="translate(0)" fill="#49d6cb"/>
    <path id="Path_3199" data-name="Path 3199" d="M1445.414,3420.414h-10.236a1.327,1.327,0,0,0-1.364,1.255h-8.44a1.327,1.327,0,0,0-1.363-1.255h-10.234a1.285,1.285,0,1,0,0,2.565h8.87a1.327,1.327,0,0,0,1.363,1.255h11.166a1.327,1.327,0,0,0,1.363-1.255h8.873a1.285,1.285,0,1,0,0-2.565Z" transform="translate(-89.644 -375.688)" fill="#49d6cb"/>
    <path id="Path_3200" data-name="Path 3200" d="M1456.458,3338.171a1.282,1.282,0,0,0,1.283-1.283,3.044,3.044,0,0,1,1.9-2.825,1.283,1.283,0,1,0-.971-2.375,5.6,5.6,0,0,0-3.493,5.2A1.282,1.282,0,0,0,1456.458,3338.171Z" transform="translate(-127.74 -295.79)" fill="#49d6cb"/>
    <path id="Path_3201" data-name="Path 3201" d="M1654.973,3334.024a3.049,3.049,0,0,1,1.9,2.829,1.283,1.283,0,0,0,2.566,0,5.606,5.606,0,0,0-3.489-5.2,1.283,1.283,0,0,0-.975,2.373Z" transform="translate(-306.971 -295.755)" fill="#49d6cb"/>
  </g>
</svg>
