<svg xmlns="http://www.w3.org/2000/svg" width="23.296" height="23.297" viewBox="0 0 23.296 23.297">
  <path id="Subtraction_1" data-name="Subtraction 1" d="M22.254,28.72H13.39A6.724,6.724,0,0,1,6.674,22V13.138A6.724,6.724,0,0,1,13.39,6.422h8.864a6.723,6.723,0,0,1,6.716,6.716V22A6.724,6.724,0,0,1,22.254,28.72ZM13.39,8.526a4.618,4.618,0,0,0-4.613,4.613V22a4.618,4.618,0,0,0,4.613,4.612h8.864A4.618,4.618,0,0,0,26.868,22V13.138a4.618,4.618,0,0,0-4.613-4.613Zm4.469,14.7a5.507,5.507,0,1,1,5.506-5.507A5.513,5.513,0,0,1,17.86,23.222Zm0-9.034a3.528,3.528,0,1,0,3.528,3.527A3.531,3.531,0,0,0,17.86,14.188Zm5.828-1.039A1.311,1.311,0,1,1,25,11.839,1.312,1.312,0,0,1,23.688,13.149Z" transform="translate(-6.174 -5.922)" fill="#fff" stroke="rgba(0,0,0,0)" stroke-miterlimit="10" stroke-width="1"/>
</svg>
