<svg xmlns="http://www.w3.org/2000/svg" width="18.984" height="18.132" viewBox="0 0 18.984 18.132">
  <g id="Group_1039" data-name="Group 1039" transform="translate(11051.351 -7819.144)">
    <g id="Group_243" data-name="Group 243" transform="translate(-11051.086 7824.763)">
      <g id="Group_242" data-name="Group 242">
        <path id="Path_1549" data-name="Path 1549" d="M646.958,294.576v6.71a.3.3,0,0,1-.3.3h-3.464a.3.3,0,0,1-.3-.3v-6.241c0-1.642-.586-2.764-2.059-2.764a2.223,2.223,0,0,0-2.084,1.486,2.769,2.769,0,0,0-.135.991v6.528a.3.3,0,0,1-.3.3h-3.463a.3.3,0,0,1-.3-.3c.008-1.662.043-9.726.007-11.621a.3.3,0,0,1,.3-.3h3.457a.3.3,0,0,1,.3.3v1.432c-.008.014-.02.027-.027.04h.027v-.04a4.036,4.036,0,0,1,3.664-2.02c2.674,0,4.679,1.747,4.679,5.5Zm-18.42,7.011H632a.3.3,0,0,0,.3-.3V289.662a.3.3,0,0,0-.3-.3h-3.464a.3.3,0,0,0-.3.3v11.625A.3.3,0,0,0,628.538,301.587Z" transform="translate(-628.238 -289.074)" fill="#fff"/>
      </g>
    </g>
    <g id="Group_245" data-name="Group 245" transform="translate(-11051.351 7819.144)">
      <circle id="Ellipse_132" data-name="Ellipse 132" cx="2.176" cy="2.176" r="2.176" transform="translate(0)" fill="#fff"/>
    </g>
  </g>
</svg>
