<svg id="Group_236" data-name="Group 236" xmlns="http://www.w3.org/2000/svg" width="21.035" height="14.725" viewBox="0 0 21.035 14.725">
  <path id="Path_1546" data-name="Path 1546" d="M728.3,159.442a4.579,4.579,0,0,0-4.579-4.579H711.841a4.579,4.579,0,0,0-4.579,4.579v5.566a4.579,4.579,0,0,0,4.579,4.579h11.877a4.579,4.579,0,0,0,4.579-4.579Zm-7.493,3.063-4.737,2.6c-.206.112-.391-.037-.391-.272V159.5c0-.237.191-.385.4-.269l4.769,2.735A.311.311,0,0,1,720.8,162.506Z" transform="translate(-707.262 -154.863)" fill="#fff"/>
</svg>
